<?xml version="1.0" encoding="UTF-8"?>
<!DOCTYPE svg PUBLIC "-//W3C//DTD SVG 1.1//EN" "http://www.w3.org/Graphics/SVG/1.1/DTD/svg11.dtd">
<svg xmlns="http://www.w3.org/2000/svg" version="1.1" width="128px" height="128px" style="shape-rendering:geometricPrecision; text-rendering:geometricPrecision; image-rendering:optimizeQuality; fill-rule:evenodd; clip-rule:evenodd" xmlns:xlink="http://www.w3.org/1999/xlink">
<g><path style="opacity:1" fill="#f9fafa" d="M -0.5,-0.5 C 5.5,-0.5 11.5,-0.5 17.5,-0.5C 9.16667,3.16667 3.16667,9.16667 -0.5,17.5C -0.5,11.5 -0.5,5.5 -0.5,-0.5 Z"/></g>
<g><path style="opacity:1" fill="#697d80" d="M 17.5,-0.5 C 47.1667,-0.5 76.8333,-0.5 106.5,-0.5C 115.233,1.7243 121.4,7.05764 125,15.5C 125.667,46.8333 125.667,78.1667 125,109.5C 122.245,119.089 116.079,125.089 106.5,127.5C 76.8333,127.5 47.1667,127.5 17.5,127.5C 8.77089,123.77 2.77089,117.437 -0.5,108.5C -0.5,78.1667 -0.5,47.8333 -0.5,17.5C 3.16667,9.16667 9.16667,3.16667 17.5,-0.5 Z"/></g>
<g><path style="opacity:1" fill="#eff1f2" d="M 106.5,-0.5 C 113.5,-0.5 120.5,-0.5 127.5,-0.5C 127.5,42.1667 127.5,84.8333 127.5,127.5C 120.5,127.5 113.5,127.5 106.5,127.5C 116.079,125.089 122.245,119.089 125,109.5C 125.667,78.1667 125.667,46.8333 125,15.5C 121.4,7.05764 115.233,1.7243 106.5,-0.5 Z"/></g>
<g><path style="opacity:1" fill="#a5c4c4" d="M 15.5,12.5 C 23.1739,12.3336 30.8406,12.5003 38.5,13C 39.3333,13.8333 40.1667,14.6667 41,15.5C 41.6667,23.5 41.6667,31.5 41,39.5C 40.5,40 40,40.5 39.5,41C 35.4477,42.1007 31.2811,42.6007 27,42.5C 23.5,42.3333 20,42.1667 16.5,42C 15.5838,41.6258 14.7504,41.1258 14,40.5C 12.396,32.2704 12.0627,23.9371 13,15.5C 14.045,14.6266 14.8783,13.6266 15.5,12.5 Z"/></g>
<g><path style="opacity:1" fill="#a9c9c8" d="M 75.5,12.5 C 76.8333,12.5 78.1667,12.5 79.5,12.5C 79.5,15.5 79.5,18.5 79.5,21.5C 77.8561,21.7135 76.3561,21.3802 75,20.5C 74.2782,17.7395 74.4448,15.0728 75.5,12.5 Z"/></g>
<g><path style="opacity:1" fill="#a5c4c4" d="M 88.5,12.5 C 96.1739,12.3336 103.841,12.5003 111.5,13C 112.333,13.8333 113.167,14.6667 114,15.5C 114.667,23.1667 114.667,30.8333 114,38.5C 113.626,39.4162 113.126,40.2496 112.5,41C 104.939,42.5979 97.2724,42.9313 89.5,42C 88.0692,41.5348 86.9025,40.7014 86,39.5C 85.3333,31.5 85.3333,23.5 86,15.5C 87.045,14.6266 87.8783,13.6266 88.5,12.5 Z"/></g>
<g><path style="opacity:1" fill="#697d80" d="M 18.5,15.5 C 24.1764,15.3339 29.8431,15.5006 35.5,16C 36.3333,16.8333 37.1667,17.6667 38,18.5C 38.6667,24.5 38.6667,30.5 38,36.5C 37.5,37 37,37.5 36.5,38C 29.9184,38.81 23.4184,38.6433 17,37.5C 15.4185,31.2774 15.0852,24.9441 16,18.5C 17.045,17.6266 17.8783,16.6266 18.5,15.5 Z"/></g>
<g><path style="opacity:1" fill="#697d80" d="M 91.5,15.5 C 97.1764,15.3339 102.843,15.5006 108.5,16C 109.333,16.8333 110.167,17.6667 111,18.5C 111.667,24.1667 111.667,29.8333 111,35.5C 110.692,36.3081 110.192,36.9747 109.5,37.5C 103.218,38.626 96.8849,38.7927 90.5,38C 90,37.5 89.5,37 89,36.5C 88.3333,30.5 88.3333,24.5 89,18.5C 90.045,17.6266 90.8783,16.6266 91.5,15.5 Z"/></g>
<g><path style="opacity:1" fill="#8ca7a8" d="M 33.5,34.5 C 33.5,29.8333 33.5,25.1667 33.5,20.5C 29.1667,20.5 24.8333,20.5 20.5,20.5C 20.5,25.1667 20.5,29.8333 20.5,34.5C 19.5128,29.6946 19.1795,24.6946 19.5,19.5C 24.5,19.5 29.5,19.5 34.5,19.5C 34.8205,24.6946 34.4872,29.6946 33.5,34.5 Z"/></g>
<g><path style="opacity:1" fill="#abcbca" d="M 33.5,34.5 C 29.1667,34.5 24.8333,34.5 20.5,34.5C 20.5,29.8333 20.5,25.1667 20.5,20.5C 24.8333,20.5 29.1667,20.5 33.5,20.5C 33.5,25.1667 33.5,29.8333 33.5,34.5 Z"/></g>
<g><path style="opacity:1" fill="#8ca7a8" d="M 106.5,34.5 C 106.5,29.8333 106.5,25.1667 106.5,20.5C 102.167,20.5 97.8333,20.5 93.5,20.5C 93.5,25.1667 93.5,29.8333 93.5,34.5C 92.5128,29.6946 92.1795,24.6946 92.5,19.5C 97.5,19.5 102.5,19.5 107.5,19.5C 107.821,24.6946 107.487,29.6946 106.5,34.5 Z"/></g>
<g><path style="opacity:1" fill="#abcbca" d="M 106.5,34.5 C 102.167,34.5 97.8333,34.5 93.5,34.5C 93.5,29.8333 93.5,25.1667 93.5,20.5C 97.8333,20.5 102.167,20.5 106.5,20.5C 106.5,25.1667 106.5,29.8333 106.5,34.5 Z"/></g>
<g><path style="opacity:1" fill="#a5c5c4" d="M 45.5,24.5 C 57.5046,24.3335 69.5046,24.5001 81.5,25C 82.8333,26.6667 82.8333,28.3333 81.5,30C 69.5,30.6667 57.5,30.6667 45.5,30C 44.2475,28.1722 44.2475,26.3388 45.5,24.5 Z"/></g>
<g><path style="opacity:1" fill="#f4ef99" d="M 62.5,40.5 C 64.1066,42.7177 65.94,44.7177 68,46.5C 70.0577,45.8883 71.891,44.8883 73.5,43.5C 74.48,46.0865 74.8134,48.7531 74.5,51.5C 77.2469,51.1866 79.9135,51.52 82.5,52.5C 81.5,54.5 80.5,56.5 79.5,58.5C 81.4602,60.1563 83.4602,61.823 85.5,63.5C 83.4602,65.177 81.4602,66.8437 79.5,68.5C 80.5,70.5 81.5,72.5 82.5,74.5C 79.9135,75.48 77.2469,75.8134 74.5,75.5C 74.8134,78.2469 74.48,80.9135 73.5,83.5C 68.4793,78.8941 64.9793,79.8941 63,86.5C 61.3903,84.269 59.557,82.269 57.5,80.5C 55.5,81.5 53.5,82.5 51.5,83.5C 50.52,80.9135 50.1866,78.2469 50.5,75.5C 47.7531,75.8134 45.0865,75.48 42.5,74.5C 43.8883,72.891 44.8883,71.0577 45.5,69C 44.2931,66.7341 42.6264,64.9008 40.5,63.5C 42.6264,62.0992 44.2931,60.2659 45.5,58C 44.8883,55.9423 43.8883,54.109 42.5,52.5C 45.4281,51.5159 48.4281,51.1826 51.5,51.5C 51.3359,48.8127 51.5026,46.146 52,43.5C 53.8606,44.7636 55.8606,45.7636 58,46.5C 59.743,44.68 61.243,42.68 62.5,40.5 Z"/></g>
<g><path style="opacity:1" fill="#abcbca" d="M 97.5,44.5 C 99.1667,44.5 100.833,44.5 102.5,44.5C 102.667,57.1711 102.5,69.8377 102,82.5C 100.644,83.3802 99.1439,83.7135 97.5,83.5C 97.5,70.5 97.5,57.5 97.5,44.5 Z"/></g>
<g><path style="opacity:1" fill="#abcbca" d="M 25.5,45.5 C 26.8221,45.33 27.9887,45.6634 29,46.5C 29.4999,58.8288 29.6665,71.1622 29.5,83.5C 27.8561,83.7135 26.3561,83.3802 25,82.5C 24.1882,70.0911 24.3548,57.7577 25.5,45.5 Z"/></g>
<g><path style="opacity:1" fill="#758681" d="M 58.5,49.5 C 66.2689,48.6349 72.1023,51.6349 76,58.5C 77.9382,72.1611 72.1049,78.3277 58.5,77C 50.2985,72.7695 47.4652,66.2695 50,57.5C 52.0738,53.9231 54.9072,51.2565 58.5,49.5 Z"/></g>
<g><path style="opacity:1" fill="#faf39a" d="M 60.5,51.5 C 72.0242,52.5099 76.1909,58.5099 73,69.5C 67.2824,76.5806 60.9491,77.2473 54,71.5C 49.121,62.3222 51.2877,55.6555 60.5,51.5 Z"/></g>
<g><path style="opacity:1" fill="#a6c5c4" d="M 13.5,69.5 C 15.1439,69.2865 16.6439,69.6198 18,70.5C 18.6667,74.5 18.6667,78.5 18,82.5C 16.3333,83.8333 14.6667,83.8333 13,82.5C 12.2316,78.0804 12.3982,73.7471 13.5,69.5 Z"/></g>
<g><path style="opacity:1" fill="#a9c9c8" d="M 88.5,79.5 C 90.1667,79.5 91.8333,79.5 93.5,79.5C 93.6641,82.1873 93.4974,84.854 93,87.5C 91.6667,88.8333 90.3333,88.8333 89,87.5C 88.5026,84.854 88.3359,82.1873 88.5,79.5 Z"/></g>
<g><path style="opacity:1" fill="#a5c4c3" d="M 16.5,86.5 C 23.5079,86.3337 30.5079,86.5004 37.5,87C 38.9308,87.4652 40.0975,88.2986 41,89.5C 41.6667,97.5 41.6667,105.5 41,113.5C 40.6924,114.308 40.1924,114.975 39.5,115.5C 31.5492,116.635 23.5492,116.802 15.5,116C 14.6919,115.692 14.0253,115.192 13.5,114.5C 12.3651,106.549 12.1984,98.5492 13,90.5C 13.6897,88.6498 14.8564,87.3164 16.5,86.5 Z"/></g>
<g><path style="opacity:1" fill="#a6c6c5" d="M 112.5,104.5 C 91.5,104.5 70.5,104.5 49.5,104.5C 49.5,108.167 49.5,111.833 49.5,115.5C 48.1155,116.801 46.6155,116.801 45,115.5C 44.3333,106.5 44.3333,97.5 45,88.5C 46.6667,87.1667 48.3333,87.1667 50,88.5C 50.4983,91.8168 50.665,95.1501 50.5,98.5C 71.5026,98.3334 92.5026,98.5 113.5,99C 114.98,101.235 114.647,103.068 112.5,104.5 Z"/></g>
<g><path style="opacity:1" fill="#a9c9c8" d="M 56.5,91.5 C 65.8333,91.5 75.1667,91.5 84.5,91.5C 84.5,93.1667 84.5,94.8333 84.5,96.5C 75.1667,96.5 65.8333,96.5 56.5,96.5C 56.5,94.8333 56.5,93.1667 56.5,91.5 Z"/></g>
<g><path style="opacity:1" fill="#7d9597" d="M 112.5,104.5 C 92.0067,105.497 71.3401,105.831 50.5,105.5C 50.8128,109.042 50.4794,112.375 49.5,115.5C 49.5,111.833 49.5,108.167 49.5,104.5C 70.5,104.5 91.5,104.5 112.5,104.5 Z"/></g>
<g><path style="opacity:1" fill="#a9c9c8" d="M 87.5,107.5 C 95.84,107.334 104.173,107.5 112.5,108C 115.167,110.667 115.167,113.333 112.5,116C 104.167,116.667 95.8333,116.667 87.5,116C 84.8987,113.17 84.8987,110.337 87.5,107.5 Z"/></g>
<g><path style="opacity:1" fill="#f8f9f9" d="M -0.5,108.5 C 2.77089,117.437 8.77089,123.77 17.5,127.5C 11.5,127.5 5.5,127.5 -0.5,127.5C -0.5,121.167 -0.5,114.833 -0.5,108.5 Z"/></g>
<g><path style="opacity:1" fill="#697d80" d="M 18.5,90.5 C 24.1764,90.3339 29.8431,90.5006 35.5,91C 36.3081,91.3076 36.9747,91.8076 37.5,92.5C 43.3841,110.781 37.0507,117.614 18.5,113C 17.6667,112.167 16.8333,111.333 16,110.5C 15.3333,104.833 15.3333,99.1667 16,93.5C 17.045,92.6266 17.8783,91.6266 18.5,90.5 Z"/></g>
<g><path style="opacity:1" fill="#a8c8c7" d="M 19.5,94.5 C 24.1667,94.5 28.8333,94.5 33.5,94.5C 33.5,99.5 33.5,104.5 33.5,109.5C 28.8333,109.5 24.1667,109.5 19.5,109.5C 19.5,104.5 19.5,99.5 19.5,94.5 Z"/></g>
</svg>
